# xmcd
#
# Track frame offsets:
#	150
#	16615
#	32790
#	53953
#	64765
#	82880
#	95393
#	112760
#	134038
#	148160
#	170628
#	189240
#	198345
#	210033
#	231173
#	246263
#	261503
#	275945
#	291505
#	305940
#	318308
#	330618
#
# Disc length: 4639 seconds
#
# Revision: 0
# Processed by: cddbd v1.5.2PL0 Copyright (c) Steve Scherf et al.
# Submitted via: SynApp - FreeCDDB Version: 2.3
#
DISCID=4c121d16
DTITLE=LeAnn Rimes - You Light Up My Life/Unchained Melody [The Early Years]
DYEAR=1997
DGENRE=Country
TTITLE0=You Light Up My Life
TTITLE1=The Rose
TTITLE2=Bridge Over Troubled Waters
TTITLE3=I Believe
TTITLE4=Ten Thousand Angels Cried
TTITLE5=Clinging To A Saving Hand
TTITLE6=On The Side Of Angels
TTITLE7=I Know Who Holds Tomorrow
TTITLE8=God Bless America
TTITLE9=How Do I Live [Extended Mix]
TTITLE10=Amazing Grace
TTITLE11=National Anthem
TTITLE12=Cowboy's Sweetheart
TTITLE13=I Will Always Love You
TTITLE14=Blue Moon Of Kentucky
TTITLE15=River Of Love
TTITLE16=The Rest Is History
TTITLE17=Broken Wing
TTITLE18=Yesterday
TTITLE19=Sure Thing
TTITLE20=Share My Love
TTITLE21=Unchained Melody
EXTD=
EXTT0=
EXTT1=
EXTT2=
EXTT3=
EXTT4=
EXTT5=
EXTT6=
EXTT7=
EXTT8=
EXTT9=
EXTT10=
EXTT11=
EXTT12=
EXTT13=
EXTT14=
EXTT15=
EXTT16=
EXTT17=
EXTT18=
EXTT19=
EXTT20=
EXTT21=
PLAYORDER=
